<mxfile host="app.diagrams.net" modified="2023-10-08T16:56:11.025Z" agent="Mozilla/5.0 (Windows NT 10.0; Win64; x64) AppleWebKit/537.36 (KHTML, like Gecko) Chrome/117.0.0.0 Safari/537.36" version="22.0.4" etag="cpSb1zKyxuzm6DdQbgBm" type="github">
  <diagram name="PÃ¡gina-1" id="Zxa35c4Bl3jtBn0jvhHs">
    <mxGraphModel>
      <root>
        <mxCell id="0" />
        <mxCell id="1" parent="0" />
      </root>
    </mxGraphModel>
  </diagram>
</mxfile>
